<mxfile host="app.diagrams.net" modified="2024-05-17T04:45:38.367Z" agent="Mozilla/5.0 (Windows NT 10.0; Win64; x64) AppleWebKit/537.36 (KHTML, like Gecko) Chrome/124.0.0.0 Safari/537.36" etag="wabXOuGQ1QNzHBJG0icg" version="24.4.3" type="device">
  <diagram name="Page-1" id="I_W7VRPgbkZPH9CRZWCt">
    <mxGraphModel dx="1434" dy="792" grid="1" gridSize="10" guides="1" tooltips="1" connect="1" arrows="1" fold="1" page="1" pageScale="1" pageWidth="850" pageHeight="1100" math="0" shadow="0">
      <root>
        <mxCell id="0" />
        <mxCell id="1" parent="0" />
        <mxCell id="IoSwMLyIsw0Emn4TIyJ6-3" style="edgeStyle=orthogonalEdgeStyle;rounded=0;orthogonalLoop=1;jettySize=auto;html=1;exitX=1;exitY=0.5;exitDx=0;exitDy=0;entryX=0;entryY=0.5;entryDx=0;entryDy=0;" edge="1" parent="1" source="IoSwMLyIsw0Emn4TIyJ6-1" target="IoSwMLyIsw0Emn4TIyJ6-2">
          <mxGeometry relative="1" as="geometry" />
        </mxCell>
        <mxCell id="IoSwMLyIsw0Emn4TIyJ6-1" value="USER INPUT" style="rounded=0;whiteSpace=wrap;html=1;" vertex="1" parent="1">
          <mxGeometry x="130" y="270" width="120" height="60" as="geometry" />
        </mxCell>
        <mxCell id="IoSwMLyIsw0Emn4TIyJ6-5" style="edgeStyle=orthogonalEdgeStyle;rounded=0;orthogonalLoop=1;jettySize=auto;html=1;exitX=1;exitY=0.5;exitDx=0;exitDy=0;" edge="1" parent="1" source="IoSwMLyIsw0Emn4TIyJ6-2" target="IoSwMLyIsw0Emn4TIyJ6-4">
          <mxGeometry relative="1" as="geometry" />
        </mxCell>
        <mxCell id="IoSwMLyIsw0Emn4TIyJ6-2" value="COMPUTIING&amp;nbsp;&lt;div&gt;UNIT&lt;/div&gt;" style="whiteSpace=wrap;html=1;aspect=fixed;" vertex="1" parent="1">
          <mxGeometry x="400" y="260" width="80" height="80" as="geometry" />
        </mxCell>
        <mxCell id="IoSwMLyIsw0Emn4TIyJ6-4" value="OUTPPUT" style="rounded=0;whiteSpace=wrap;html=1;" vertex="1" parent="1">
          <mxGeometry x="630" y="270" width="120" height="60" as="geometry" />
        </mxCell>
        <mxCell id="IoSwMLyIsw0Emn4TIyJ6-10" style="edgeStyle=orthogonalEdgeStyle;rounded=0;orthogonalLoop=1;jettySize=auto;html=1;exitX=0.5;exitY=1;exitDx=0;exitDy=0;entryX=0.5;entryY=0;entryDx=0;entryDy=0;" edge="1" parent="1" source="IoSwMLyIsw0Emn4TIyJ6-6" target="IoSwMLyIsw0Emn4TIyJ6-7">
          <mxGeometry relative="1" as="geometry" />
        </mxCell>
        <mxCell id="IoSwMLyIsw0Emn4TIyJ6-6" value="" style="rounded=1;whiteSpace=wrap;html=1;" vertex="1" parent="1">
          <mxGeometry x="370" y="460" width="120" height="60" as="geometry" />
        </mxCell>
        <mxCell id="IoSwMLyIsw0Emn4TIyJ6-11" style="edgeStyle=orthogonalEdgeStyle;rounded=0;orthogonalLoop=1;jettySize=auto;html=1;exitX=0.5;exitY=1;exitDx=0;exitDy=0;entryX=0.5;entryY=0;entryDx=0;entryDy=0;" edge="1" parent="1" source="IoSwMLyIsw0Emn4TIyJ6-7" target="IoSwMLyIsw0Emn4TIyJ6-8">
          <mxGeometry relative="1" as="geometry" />
        </mxCell>
        <mxCell id="IoSwMLyIsw0Emn4TIyJ6-7" value="" style="rhombus;whiteSpace=wrap;html=1;" vertex="1" parent="1">
          <mxGeometry x="390" y="600" width="80" height="80" as="geometry" />
        </mxCell>
        <mxCell id="IoSwMLyIsw0Emn4TIyJ6-12" style="edgeStyle=orthogonalEdgeStyle;rounded=0;orthogonalLoop=1;jettySize=auto;html=1;exitX=0.5;exitY=1;exitDx=0;exitDy=0;entryX=0.5;entryY=0;entryDx=0;entryDy=0;" edge="1" parent="1" source="IoSwMLyIsw0Emn4TIyJ6-8" target="IoSwMLyIsw0Emn4TIyJ6-9">
          <mxGeometry relative="1" as="geometry" />
        </mxCell>
        <mxCell id="IoSwMLyIsw0Emn4TIyJ6-13" style="edgeStyle=orthogonalEdgeStyle;rounded=0;orthogonalLoop=1;jettySize=auto;html=1;exitX=1;exitY=0.5;exitDx=0;exitDy=0;entryX=1;entryY=0.5;entryDx=0;entryDy=0;" edge="1" parent="1" source="IoSwMLyIsw0Emn4TIyJ6-8" target="IoSwMLyIsw0Emn4TIyJ6-7">
          <mxGeometry relative="1" as="geometry" />
        </mxCell>
        <mxCell id="IoSwMLyIsw0Emn4TIyJ6-8" value="" style="ellipse;whiteSpace=wrap;html=1;aspect=fixed;" vertex="1" parent="1">
          <mxGeometry x="390" y="780" width="80" height="80" as="geometry" />
        </mxCell>
        <mxCell id="IoSwMLyIsw0Emn4TIyJ6-9" value="" style="rounded=1;whiteSpace=wrap;html=1;" vertex="1" parent="1">
          <mxGeometry x="370" y="940" width="120" height="60" as="geometry" />
        </mxCell>
      </root>
    </mxGraphModel>
  </diagram>
</mxfile>
